<?xml version="1.0" encoding="utf-8"?>

<!DOCTYPE svg PUBLIC "-//W3C//DTD SVG 1.1//EN" "http://www.w3.org/Graphics/SVG/1.1/DTD/svg11.dtd">
<!-- Uploaded to: SVG Repo, www.svgrepo.com, Generator: SVG Repo Mixer Tools -->
<svg height="800px" width="800px" version="1.1" id="_x32_" xmlns="http://www.w3.org/2000/svg" xmlns:xlink="http://www.w3.org/1999/xlink" 
	 viewBox="0 0 512 512"  xml:space="preserve">
<style type="text/css">
	.st0{fill:#000000;}
</style>
<g>
	<path class="st0" d="M62.957,398.443h392.076c13.193,0,23.984-10.792,23.984-23.978V98.563c0-13.193-10.792-23.977-23.984-23.977
		H62.957c-13.208,0-23.985,10.784-23.985,23.977v275.903C38.972,387.652,49.749,398.443,62.957,398.443z M70.146,105.753h377.696
		v261.508H70.146V105.753z"/>
	<path class="st0" d="M0,412.229v5.996c0,10.552,8.631,19.189,19.183,19.189h473.621c10.566,0,19.196-8.637,19.196-19.189v-5.996H0z
		"/>
	<path class="st0" d="M342.044,153.447c-12.021-16.202-44.544-11.188-75.139,3.927c-0.078,0-0.156-0.007-0.233-0.007
		c-36.698,0-67.88,23.554-79.321,56.353c10.629-8.694,22.946-17.812,34.056-23.681c-30.151,30.214-45.816,55.844-57.568,92.937
		c-9.93,31.274,9.083,63.296,64.948,33.35c11.378,5.777,24.246,9.04,37.884,9.04c37.043,0,68.472-23.992,79.631-57.272h-45.787
		c-6.095,12.304-18.794,20.764-33.442,20.764c-20.602,0-37.284-16.696-37.284-37.284h120.242c0.41-3.354,0.65-6.758,0.65-10.205
		c0-15.008-3.955-29.091-10.848-41.274C346.522,187.835,353.316,168.645,342.044,153.447z M183.544,310.365
		c-5.918-8.716,1.391-24.776,7.55-33.329c6.002,14.739,14.718,24.557,26.69,32.446C206.244,317.78,190.084,319.97,183.544,310.365z
		 M229.918,227.633c1.596-19.14,17.615-34.155,37.157-34.155c19.528,0,35.54,15.015,37.143,34.155H229.918z M331.62,188.139
		c-6.667-8.136-14.825-14.98-24.084-20.157c7.77-4.549,20.51-9.366,27.544-5.53c0.869,0.572,1.71,1.208,2.486,2.012
		C342.652,170.517,336.027,181.888,331.62,188.139z"/>
</g>
</svg>